<svg width="96" height="49" viewBox="0 0 96 49" fill="none" xmlns="http://www.w3.org/2000/svg">
<path d="M90.9495 23.1058C89.6178 24.1032 89.7891 25.8465 91.3155 26.7222C91.9852 27.1115 92.7328 27.225 93.5272 26.9979C95.108 26.552 96.0503 25.2141 95.7855 23.8032C95.6142 22.895 94.7965 22.3112 93.5972 22.2788C92.5537 22.2544 91.6737 22.5626 90.9495 23.1058Z" fill="#7D40FF"/>
<path d="M28.8283 19.9597C28.4779 21.2003 28.1041 22.4328 27.8159 23.6816C27.3642 25.6357 26.8736 27.5899 26.6478 29.5684C26.531 30.5657 26.492 31.5712 26.5465 32.5766C26.64 34.1335 27.0839 35.8363 28.6959 36.9471C30.3936 38.1148 32.8233 38.1391 34.6689 37.239C34.9882 37.085 35.2842 36.9066 35.5567 36.7039C36.7794 35.8038 37.6983 34.7578 38.4693 33.6388C38.8197 34.3119 39.3337 34.8957 40.1747 35.366C41.0158 35.8281 41.9191 35.966 42.8848 35.7552C43.8504 35.5443 44.4734 35.0254 45.0264 34.4335C45.9764 33.4118 46.5449 32.2685 47.1134 31.1009C47.3003 30.7036 47.4483 30.3062 47.6274 29.9008C47.6586 29.8359 47.6819 29.7305 47.8065 29.7549C47.9233 29.7792 47.8922 29.8603 47.9 29.9251C47.9467 31.2793 48.8345 32.9821 50.0961 33.7524C50.758 34.1578 52.6581 33.7361 53.655 33.3307C53.7017 33.3145 53.7406 33.2902 53.7718 33.2577C53.8029 33.2253 53.8263 33.1929 53.8419 33.1604C53.8574 33.1199 53.8574 33.0875 53.8574 33.0469C53.8496 33.0064 53.8341 32.9739 53.8107 32.9334C48.4217 25.5952 57.1593 17.5353 51.2798 17.7704C50.6723 17.7948 49.9637 17.8191 49.4808 18.1191C48.7332 18.5813 48.7488 19.4732 48.5931 20.1381C48.3672 21.0787 48.157 22.0112 47.9545 22.9518C47.5651 24.833 47.1602 26.7223 46.2646 28.498C45.9764 29.0737 45.6338 29.6332 45.2366 30.1765C44.7616 30.8171 44.3566 31.6279 43.6713 32.1631C43.2664 32.4793 43.025 32.4063 42.8848 31.9847C42.6901 31.3928 42.7446 30.6225 42.7991 30.0305C42.9705 28.0764 43.5701 25.3925 43.9906 23.7383C44.2476 22.7248 44.3566 21.5733 44.4501 21.0706C44.6604 19.9435 43.8504 19.7895 42.4876 19.4165C41.4207 19.1165 39.9878 19.1083 39.6296 20.0895C38.9287 22.0031 38.7652 24.0059 38.2201 25.9438C37.6905 27.8737 36.8806 29.7467 35.8137 31.5387C35.5022 32.0496 35.1673 32.5523 34.8091 33.0388C34.7001 33.1848 34.5599 33.3145 34.3886 33.4199C34.2951 33.4767 34.1939 33.5334 34.0927 33.5821C33.3295 33.947 32.7532 33.7767 32.5118 33.1118C32.3171 32.5928 32.3638 32.0658 32.395 31.5387C32.5274 29.4467 32.9946 27.3953 33.4775 25.3438C34.007 23.0815 34.63 20.8436 35.2997 18.6056L55.0256 14.4378C55.6641 14.3081 56.2794 14.1216 56.8478 13.8621C58.9505 12.9053 57.4864 10.4403 55.0956 10.9187L36.5925 14.6243C36.6003 14.6 36.608 14.5676 36.6236 14.5351C37.2077 13.0432 37.8463 11.6323 38.368 10.2052C38.4693 9.92949 38.5627 9.67001 38.3914 9.38621C37.7917 8.37265 35.9227 7.4726 34.4665 7.48882C33.5553 7.49693 33.0725 7.77262 32.8077 8.42941C31.8576 10.7728 30.2612 15.5325 30.2612 15.5325L25.9781 16.7569C24.919 17.1055 24.919 17.1055 24.1636 17.3731C21.7806 18.2164 22.4581 21.4841 26.1961 20.5273L28.8283 19.9597Z" fill="#7D40FF"/>
<path d="M80.4596 32.1712C80.4596 32.1712 71.1068 32.0009 48.1881 36.8985C25.2694 41.8041 19.639 42.9555 16.8121 44.3178C13.9775 45.68 20.3087 48.6558 22.5204 48.8829C22.9799 48.9315 23.2991 48.9477 23.5172 48.9477C23.6262 48.9477 23.7352 48.9234 23.8209 48.8667C23.9144 48.8099 23.9922 48.7369 24.0467 48.6396C24.257 48.2423 24.9813 47.4801 27.4343 46.7098C30.9621 45.5908 49.8313 39.3959 83.8706 34.5875C83.8706 34.5875 84.6338 34.4416 83.3099 32.9334C82.5856 32.1225 80.4596 32.1712 80.4596 32.1712Z" fill="#7D40FF"/>
<path d="M15.8075 27.8656C16.3838 28.5223 16.8978 29.2359 17.3105 30.0062C17.6609 30.6549 17.9647 31.3522 18.1204 32.082C18.7512 34.9767 16.3059 37.6769 14.0242 39.104C12.5523 40.0284 10.6833 40.8554 8.83766 40.2149C7.24122 39.6554 6.61043 38.0823 6.55592 36.8985C6.49362 35.5849 6.65715 33.6632 7.29573 32.2117C7.35024 32.082 7.44369 31.9117 7.56051 31.709C8.05891 30.7846 8.74421 29.5116 7.96546 28.717C7.49821 28.2386 6.94529 28.1818 6.5637 28.2223C4.31311 28.4332 1.71207 32.8442 1.68871 32.8928C0.590665 34.9686 -0.0634874 38.0742 1.35384 40.5473C2.16375 41.9663 3.53435 42.9555 5.42672 43.4745C6.8752 43.8637 8.5028 44.0259 10.1615 43.9772C12.6458 43.9123 15.1845 43.3772 17.256 42.4204C20.2308 41.05 22.5281 38.9175 23.5483 36.566C24.9812 33.2821 25.0669 30.517 23.7975 28.1088C22.8552 26.3249 21.3444 24.7843 19.8804 23.3005C19.4209 22.8302 18.9459 22.3436 18.502 21.8734C16.376 19.5705 15.0132 17.065 14.5771 14.6405C14.1643 12.3539 14.2889 9.1916 15.862 7.1888C17.0613 5.6725 18.9459 4.40757 20.7837 3.88051C22.3412 3.43454 23.9611 3.02912 25.1759 3.2967C25.3862 3.33724 25.5809 3.41833 25.7522 3.53185C25.9157 3.64537 26.0481 3.79132 26.1338 3.95349C26.7412 5.06436 26.0014 7.47259 24.148 10.4241C24.0857 10.5295 24.0078 10.6268 23.9377 10.7322C23.9221 10.7484 23.9143 10.7728 23.8988 10.789L23.7118 11.0971C23.5249 11.4215 22.8007 12.4756 22.5593 12.8161C22.5126 12.8891 22.4581 12.954 22.3958 13.0269C21.7728 13.7891 21.9986 14.2189 22.3023 14.454C22.9019 14.9 24.0856 14.6324 24.8644 14.1216C25.8301 13.4972 26.5777 12.6458 27.2474 11.8917C27.4031 11.7134 27.5667 11.535 27.7302 11.3566C28.8283 10.1241 29.7861 8.81861 30.5882 7.44827C30.6505 7.34286 30.7128 7.22934 30.7829 7.12393C31.2424 6.35362 31.7719 5.4779 31.5773 4.53731C31.5227 4.27783 31.4215 4.01836 31.2891 3.78321C30.9231 3.1102 30.2612 2.42909 29.459 1.91014C28.6959 1.41552 27.7692 1.01009 26.6244 0.69386C23.7041 -0.125102 20.5423 -0.141319 17.6454 0.645209C15.7841 1.14794 14.0008 2.07231 12.2097 3.45887C9.60084 5.4779 7.77856 8.31588 7.44369 10.8539C7.05432 13.8297 7.56829 17.1136 9.39058 19.8381C9.41394 19.83 11.5166 22.968 15.8075 27.8656Z" fill="#7D40FF"/>
<path d="M54.1223 28.9845C54.3638 30.1116 54.7843 31.1738 55.7032 32.082C56.8713 33.2253 58.5223 33.428 60.0253 32.6496C61.1934 32.0415 61.9021 31.1414 62.5173 30.1846C63.2883 28.9845 63.8412 27.7115 64.3941 26.4385C64.433 26.3493 64.433 26.1871 64.5966 26.2195C64.7445 26.2439 64.7056 26.3898 64.7056 26.4871C64.7134 27.3304 64.8769 28.1656 65.1962 28.9764C65.4688 29.69 65.936 30.3224 66.6836 30.809C67.7116 31.4901 68.9887 31.563 70.0868 31.0036C70.6786 30.7035 71.1381 30.3062 71.5508 29.8765C72.7813 28.5872 73.599 27.1034 74.3699 25.6114C74.4478 25.4654 74.5179 25.3114 74.6269 25.1087C74.8216 25.5222 74.9618 25.8627 75.1487 26.1952C75.9897 27.7034 77.3136 28.798 79.4163 29.1467C81.0828 29.4224 82.6247 29.1143 84.0498 28.4656C85.8955 27.6223 87.2661 26.3898 88.4264 25.0032C89.9061 23.2518 90.9496 21.3382 91.7906 19.3435C92.328 18.0704 92.8965 16.7974 93.1301 15.4514C93.2236 14.9 92.9432 14.5351 92.2813 14.3162C91.7517 14.1378 91.5726 14.2027 91.4091 14.6162C90.8717 16.019 90.2721 17.3974 89.5868 18.7435C88.6912 20.503 87.6399 22.1896 86.1213 23.6653C85.1712 24.5897 84.1277 25.433 82.6792 25.9033C81.4488 26.3006 80.4364 25.9925 79.8679 25.0276C79.8056 24.914 79.7511 24.7924 79.7044 24.6789C79.2917 23.641 79.3617 22.5869 79.4318 21.5247C79.4552 21.2247 79.6109 21.1355 79.9614 21.1355C80.7168 21.1274 81.4488 20.9976 82.1341 20.7787C84.2445 20.1057 85.802 18.9218 87.0325 17.4542C88.0293 16.2622 88.6601 14.9649 88.7613 13.5053C88.847 12.2728 88.4732 11.1458 87.3128 10.2295C85.7787 9.02132 83.4035 8.59157 81.5422 9.21592C80.2729 9.64568 79.3462 10.3917 78.544 11.2512C76.9632 12.9377 76.0131 14.8595 75.2811 16.8704C74.9384 17.811 74.8216 18.8002 74.4634 19.7327C73.856 21.322 73.1707 22.9031 72.3841 24.4438C71.9013 25.4006 71.4262 26.3574 70.6786 27.2007C70.4995 27.4034 70.3126 27.6953 69.931 27.598C69.5261 27.5007 69.5728 27.1601 69.565 26.9006C69.5417 25.9033 69.6507 24.9141 69.8921 23.941C70.9901 19.5057 72.1972 15.0946 73.5133 10.7079C74.1363 8.64022 74.6892 6.56443 75.6159 4.56973C75.7483 4.28594 75.725 3.9697 75.5692 3.6859C75.0241 2.67234 72.7657 1.65877 71.4107 1.83716C71.1926 1.86148 70.9979 1.92635 70.8422 2.03987C70.6864 2.15339 70.5774 2.29934 70.5385 2.45341C70.4762 2.66423 70.4294 2.87505 70.3827 3.08587C69.604 6.56443 68.7629 10.0268 67.805 13.4648C67.696 13.854 67.6259 13.8702 67.2366 13.627C66.5902 13.2215 65.8582 12.9053 65.0716 12.6864C63.226 12.1674 61.5205 12.281 60.0019 13.254C59.449 13.6026 58.9584 13.9919 58.5301 14.4297C56.8947 16.0839 55.9135 17.9975 55.1659 20.0003C53.3747 24.7113 53.9977 28.1412 54.1223 28.9845ZM79.9925 18.5975C80.6389 16.5136 81.4332 14.4703 82.8739 12.6377C83.1932 12.2323 83.5592 11.8674 84.0732 11.6079C84.5872 11.3485 84.9376 11.462 85.1012 12.0377C85.1868 12.5972 85.0544 13.2297 84.8597 13.8459C84.338 15.4676 83.5359 16.9839 82.103 18.2326C81.7058 18.5894 81.184 18.8651 80.6 19.0191C80.4053 19.0678 80.2106 19.084 80.0393 18.9705C79.8524 18.857 79.9536 18.7191 79.9925 18.5975ZM59.1998 25.8465C59.5814 23.2194 60.3134 20.6652 61.5828 18.2245C61.9955 17.4299 62.4939 16.6596 63.2026 15.9947C63.6854 15.5487 64.2306 15.1838 65.0327 15.1676C65.7024 15.1514 66.2553 15.4027 66.7771 15.7028C66.9951 15.8325 66.8861 15.9866 66.8316 16.1325C66.45 17.0812 66.084 18.038 65.679 18.9786C64.5109 21.7031 63.2883 24.4113 61.7463 27.0142C61.4971 27.4439 61.209 27.8574 60.9209 28.271C60.7573 28.5061 60.5704 28.7251 60.3602 28.9359C60.1655 29.1305 59.9941 29.4143 59.6126 29.3413C59.231 29.2683 59.2855 28.944 59.1609 28.7007C58.9506 27.7601 59.0596 26.7952 59.1998 25.8465Z" fill="#7D40FF"/>
</svg>
