<svg width="20" height="20" viewBox="0 0 20 20" fill="none" xmlns="http://www.w3.org/2000/svg">
<path d="M19.375 17.5H0.625C0.279687 17.5 0 17.7797 0 18.125V19.375C0 19.7203 0.279687 20 0.625 20H19.375C19.7203 20 20 19.7203 20 19.375V18.125C20 17.7797 19.7203 17.5 19.375 17.5ZM7.5 15L5 13.75L7.5 12.5L8.75 10L10 12.5L12.5 13.75L10 15L9.375 16.25H17.5L14.1246 8.37383C13.8833 7.81108 13.857 7.17928 14.0508 6.59844L16.25 0L8.92266 4.18711C7.99831 4.71531 7.26671 5.52478 6.83438 6.49766L2.5 16.25H8.125L7.5 15ZM10 6.25L10.625 5L11.25 6.25L12.5 6.875L11.25 7.5L10.625 8.75L10 7.5L8.75 6.875L10 6.25Z" fill="#EB42BE"/>
</svg>
